<svg xmlns="http://www.w3.org/2000/svg" viewBox="0 0 101.76 100.85"><defs><style>.cls-1{fill:#fff;}</style></defs><title>logo_statlel</title><g id="Layer_2" data-name="Layer 2"><g id="Layer_1-2" data-name="Layer 1"><polygon points="16.72 0 0 15.81 0 100.85 85.04 100.85 101.76 85.04 101.76 0 16.72 0"/><path class="cls-1" d="M44,11.8,38,13a2.79,2.79,0,0,0-2.81-2.36c-1.07,0-1.85.51-1.85,1.37,0,.48.18.93,1,1.11l4,1c3.79,1,5.85,2.72,5.85,6,0,4.86-4.69,6.74-8.69,6.74-5,0-8.74-2.47-9.31-6.23l6.27-1.17A3,3,0,0,0,35.58,22c1.14,0,2.06-.45,2.06-1.37,0-.48-.24-.9-1.13-1.14l-4.12-1c-3.58-.87-5.55-2.66-5.55-5.85,0-4.36,3.7-6.63,8.38-6.63S43.31,8,44,11.8Z"/><path class="cls-1" d="M62.86,11.65V26.43H56.68V11.65H50.51V6.43H69v5.22Z"/><path class="cls-1" d="M89.16,26.43l-1-2.72H80.53l-1,2.72H73l7.91-20h7l7.91,20ZM84.39,12.91l-2,5.7h4Z"/><path class="cls-1" d="M38.27,37.47V52.24H32.09V37.47H25.91V32.24H44.45v5.23Z"/><path class="cls-1" d="M67.83,52.24H51.72v-20h16v5.11H57.89v2.59h9v4.6h-9v2.6h9.94Z"/><path class="cls-1" d="M92,52.24H76.7v-20h6.18V47H92Z"/><path class="cls-1" d="M43.24,78.05H27.12v-20h16v5.1H33.3v2.6h9v4.59h-9V73h9.94Z"/><path class="cls-1" d="M68.62,63.43l-6,1.22a2.77,2.77,0,0,0-2.8-2.35c-1.07,0-1.85.5-1.85,1.37,0,.48.18.92,1,1.1l4,1c3.79.95,5.85,2.71,5.85,6,0,4.86-4.68,6.74-8.68,6.74-5,0-8.75-2.48-9.31-6.24L57,71.1a3,3,0,0,0,3.14,2.51c1.13,0,2.06-.45,2.06-1.38,0-.47-.24-.89-1.14-1.13l-4.12-1c-3.58-.86-5.55-2.65-5.55-5.84,0-4.36,3.7-6.63,8.39-6.63S67.91,59.67,68.62,63.43Z"/><path class="cls-1" d="M93.22,63.43l-6,1.22a2.78,2.78,0,0,0-2.81-2.35c-1.07,0-1.85.5-1.85,1.37,0,.48.18.92,1,1.1l4,1c3.79.95,5.85,2.71,5.85,6,0,4.86-4.69,6.74-8.69,6.74-5,0-8.74-2.48-9.31-6.24l6.27-1.16a3,3,0,0,0,3.13,2.51c1.14,0,2.06-.45,2.06-1.38,0-.47-.24-.89-1.13-1.13l-4.12-1C78,69.22,76,67.43,76,64.24c0-4.36,3.7-6.63,8.38-6.63S92.5,59.67,93.22,63.43Z"/></g></g></svg>